<?xml version="1.0" encoding="UTF-8"?>
<!DOCTYPE svg PUBLIC "-//W3C//DTD SVG 1.1//EN" "http://www.w3.org/Graphics/SVG/1.1/DTD/svg11.dtd">
<!-- Creator: CorelDRAW -->
<svg xmlns="http://www.w3.org/2000/svg" xml:space="preserve" width="60px" height="60px" version="1.1" style="shape-rendering:geometricPrecision; text-rendering:geometricPrecision; image-rendering:optimizeQuality; fill-rule:evenodd; clip-rule:evenodd"
viewBox="0 0 60 60"
 xmlns:xlink="http://www.w3.org/1999/xlink"
 xmlns:xodm="http://www.corel.com/coreldraw/odm/2003">
 <defs>
  <style type="text/css">
   <![CDATA[
    .str0 {stroke:#BDBDBD;stroke-width:0.378;stroke-miterlimit:22.9256}
    .fil0 {fill:white}
   ]]>
  </style>
 </defs>
 <g id="Camada_x0020_1">
  <metadata id="CorelCorpID_0Corel-Layer"/>
  <g id="_1502631056336">
   <path class="fil0 str0" d="M10.064 50.743l0.014 -0.422c0.039,-0.116 0.02,-0.177 0.068,-0.326l0.074 -0.175c0.035,-0.105 0.091,-0.173 0.153,-0.263l0.341 -0.344c0.023,-0.015 0.04,-0.032 0.056,-0.048l0.262 -0.153c0.004,-0.002 0.009,-0.005 0.013,-0.007l0.249 -0.083c0.088,-0.044 0.159,-0.008 0.336,-0.06 0.105,-0.03 0.17,0.009 0.265,0.029 0.077,0.016 0.158,-0.01 0.232,0.018l0.198 0.072c0.099,0.017 0.149,0.079 0.23,0.123 0.004,0.002 0.01,0.005 0.014,0.007 0.004,0.002 0.01,0.004 0.014,0.006l0.029 0.013c0.004,0.002 0.009,0.005 0.014,0.007l0.221 0.152c0.005,0.004 0.016,0.017 0.021,0.021l0.118 0.152c0.038,0.062 0.107,0.104 0.144,0.167 0.05,0.083 -0.035,-0.054 0.015,0.027 0.002,0.004 0.005,0.009 0.007,0.013l0.159 0.361c0.002,0.003 0.005,0.009 0.008,0.013 0.002,0.004 0.005,0.009 0.006,0.013l0.053 0.281c0.016,0.056 0.017,0.339 0.008,0.405 -0.017,0.113 -0.033,0.064 -0.041,0.167 -0.007,0.081 -0.039,0.124 -0.069,0.202l-0.27 0.497c-0.003,0.004 -0.006,0.009 -0.008,0.013 -0.002,0.004 -0.005,0.009 -0.008,0.013l-0.309 0.272c-0.08,0.079 -0.021,0.035 -0.137,0.071l-0.073 0.031c-0.004,0.002 -0.009,0.005 -0.013,0.008 -0.162,0.101 -0.036,0.037 -0.22,0.092l-0.319 0.095c-0.094,0.03 -0.294,0.03 -0.388,0l-0.107 -0.038c-0.137,-0.048 -0.276,-0.041 -0.395,-0.124 -0.073,-0.05 -0.176,-0.054 -0.249,-0.125l-0.066 -0.058c-0.104,-0.066 -0.21,-0.155 -0.287,-0.253 -0.023,-0.03 -0.006,-0.008 -0.024,-0.039l-0.114 -0.177c-0.002,-0.003 -0.006,-0.008 -0.009,-0.011l-0.155 -0.364c-0.002,-0.005 -0.005,-0.01 -0.006,-0.015l-0.014 -0.173c-0.019,-0.147 -0.013,0 -0.041,-0.083zm44.069 -45.483l0.627 0 0.604 0.263c0.034,0.022 0.053,0.045 0.077,0.069 0.088,0.091 0.174,0.169 0.243,0.276l0.203 0.399c0.014,0.04 0.024,0.102 0.031,0.177l0 0.473c-0.012,0.136 -0.035,0.253 -0.072,0.305l-0.068 0.099c-0.002,0.004 -0.004,0.009 -0.006,0.014 -0.002,0.005 -0.004,0.011 -0.005,0.015 -0.062,0.176 -0.063,0.118 -0.154,0.262 -0.042,0.067 0.029,-0.034 -0.017,0.025l-0.113 0.115c-0.005,0.004 -0.018,0.015 -0.023,0.018 -0.004,0.003 -0.009,0.006 -0.013,0.008 -0.004,0.003 -0.01,0.005 -0.013,0.007 -0.086,0.05 -0.124,0.106 -0.208,0.147l-0.124 0.062c-0.006,0.002 -0.022,0.011 -0.027,0.014l-0.154 0.054c-0.004,0.002 -0.01,0.004 -0.015,0.006 -0.005,0.002 -0.01,0.004 -0.015,0.005l-0.032 0.01c-0.023,0.008 -0.032,0.011 -0.046,0.016 -0.05,0.018 0.019,0.006 -0.062,0.021 -0.029,0.005 -0.032,0.003 -0.058,0.005 -0.043,0.004 -0.03,-0.003 -0.074,0.009l-0.175 0.032c-0.106,0 -0.353,0.065 -0.497,0.085 -0.146,0.021 0.009,0.01 -0.11,0.036 -0.077,0.016 -0.219,-0.009 -0.437,0.06 -0.005,0.002 -0.01,0.005 -0.015,0.007l-0.186 0.021c-0.103,0.014 -0.088,0.042 -0.251,0.04 -0.094,-0.002 -0.159,0.027 -0.246,0.044l-0.314 0.06c-0.097,0.034 -0.247,0.01 -0.348,0.047l-0.213 0.057c-0.074,0.003 -0.065,-0.008 -0.131,0.014 -0.079,0.026 -0.161,0.018 -0.265,0.027 -0.058,0.004 -0.026,0.001 -0.068,0.014l-0.152 0.056c-0.093,0.029 -0.171,-0.003 -0.263,0.028 -0.056,0.019 0.038,0.002 -0.06,0.023 -0.099,0.021 -0.208,-0.004 -0.302,0.03 -0.005,0.002 -0.01,0.004 -0.015,0.005 -0.169,0.06 -0.29,0.04 -0.37,0.066l-0.117 0.029c-0.156,0.006 -0.167,-0.01 -0.298,0.055 -0.048,0.025 -0.137,0.023 -0.203,0.026 -0.04,0.001 -0.037,-0.001 -0.073,0.009l-0.03 0.012c-0.106,0.038 -0.266,0.017 -0.348,0.047l-0.154 0.053c-0.077,0.015 -0.156,-0.006 -0.231,0.018 -0.153,0.052 -0.236,0.01 -0.409,0.069l-0.251 0.04c-0.12,0.003 -0.079,-0.014 -0.102,0.043l-0.166 0 -0.026 0.099c-0.042,0.129 -0.067,0.113 -0.09,0.18l-0.035 0.152c-0.041,0.089 -0.083,0.153 -0.1,0.252l-0.007 0.035c-0.002,0.005 -0.003,0.011 -0.005,0.016l-0.02 0.042c-0.002,0.005 -0.005,0.01 -0.007,0.014 -0.002,0.004 -0.005,0.009 -0.007,0.013l-0.257 0.637c-0.062,0.119 -0.061,0.212 -0.117,0.318l-0.311 0.79c-0.001,0.005 -0.003,0.01 -0.005,0.015l-0.143 0.397c-0.016,0.048 -0.04,0.026 -0.12,0.275 -0.002,0.004 -0.003,0.01 -0.005,0.015l-0.06 0.127c-0.013,0.035 -0.008,0.028 -0.019,0.064l-0.01 0.032c-0.002,0.005 -0.004,0.01 -0.006,0.015l-0.024 0.08c-0.002,0.004 -0.004,0.01 -0.006,0.015l-0.11 0.243c-0.027,0.131 -0.02,0.074 -0.073,0.175l-0.084 0.248c-0.002,0.005 -0.005,0.01 -0.007,0.014 -0.003,0.006 -0.012,0.021 -0.015,0.027l-0.118 0.298c-0.051,0.069 -0.036,0.11 -0.066,0.203 -0.002,0.005 -0.004,0.01 -0.006,0.015 -0.009,0.027 -0.009,0.04 -0.019,0.064l-0.014 0.027c-0.044,0.071 -0.035,0.024 -0.066,0.122 -0.001,0.005 -0.003,0.01 -0.004,0.015l-0.255 0.681c-0.001,0.005 -0.004,0.01 -0.005,0.015 -0.052,0.156 -0.086,0.155 -0.1,0.211 -0.041,0.164 -0.033,0.122 -0.102,0.272 -0.002,0.006 -0.01,0.023 -0.012,0.029l-0.065 0.205c-0.002,0.005 -0.004,0.011 -0.006,0.016l-0.167 0.372c-0.045,0.1 -0.024,0.143 -0.095,0.279 -0.003,0.004 -0.005,0.009 -0.007,0.013 -0.003,0.004 -0.005,0.01 -0.008,0.014l-0.038 0.106c-0.007,0.035 -0.001,0.034 -0.011,0.072l-0.068 0.14c-0.002,0.004 -0.005,0.01 -0.007,0.014l-0.145 0.374c-0.002,0.005 -0.004,0.01 -0.005,0.015l-0.078 0.193c-0.002,0.004 -0.005,0.009 -0.007,0.014l-0.047 0.098c-0.016,0.062 0.003,0.068 -0.023,0.122 -0.032,0.069 -0.049,0.058 -0.084,0.165l-0.035 0.111c-0.016,0.044 0,0.006 -0.018,0.044l-0.196 0.51c-0.044,0.133 -0.083,0.163 -0.125,0.291l-0.011 0.03c-0.001,0.005 -0.003,0.01 -0.005,0.015 -0.001,0.006 -0.003,0.011 -0.005,0.016l-0.144 0.396c-0.002,0.006 -0.01,0.023 -0.012,0.029 -0.002,0.005 -0.005,0.009 -0.008,0.014l-0.131 0.325c-0.048,0.065 -0.015,-0.005 -0.048,0.098 -0.001,0.005 -0.003,0.01 -0.004,0.016 -0.002,0.005 -0.004,0.01 -0.006,0.015l-0.249 0.665c-0.001,0.005 -0.003,0.01 -0.005,0.015l-0.01 0.031c-0.026,0.081 -0.053,0.092 -0.079,0.149l-0.166 0.458c-0.002,0.005 -0.003,0.01 -0.005,0.015l-0.037 0.109c-0.002,0.004 -0.005,0.009 -0.007,0.013 -0.01,0.02 -0.005,0.008 -0.015,0.027 -0.002,0.004 -0.005,0.01 -0.007,0.014l-0.053 0.154c-0.002,0.005 -0.004,0.011 -0.006,0.016l-0.019 0.064c-0.001,0.005 -0.003,0.01 -0.005,0.015 -0.002,0.005 -0.004,0.01 -0.006,0.015 -0.002,0.004 -0.004,0.009 -0.007,0.014l-0.403 1.008c-0.002,0.006 -0.009,0.024 -0.011,0.031 -0.007,0.022 -0.011,0.037 -0.02,0.063l-0.168 0.434c-0.002,0.004 -0.005,0.009 -0.007,0.014l-0.061 0.126c-0.009,0.029 -0.008,0.037 -0.018,0.065 -0.015,0.045 0,0.006 -0.018,0.044l-0.106 0.288c-0.002,0.005 -0.004,0.011 -0.006,0.016l-0.232 0.577c-0.029,0.171 -0.037,0.056 -0.112,0.282l-0.084 0.207c-0.013,0.035 -0.008,0.028 -0.019,0.064l-0.021 0.062c-0.045,0.137 -0.078,0.129 -0.095,0.196l-0.044 0.184c-0.034,0.102 0.001,0.016 -0.052,0.093l-0.064 0.165c-0.006,0.02 -0.008,0.029 -0.014,0.048 -0.002,0.005 -0.003,0.011 -0.005,0.016l-0.208 0.539c-0.002,0.006 -0.004,0.011 -0.005,0.016l-0.101 0.21c-0.003,0.005 -0.004,0.01 -0.006,0.015l-0.029 0.095c-0.002,0.006 -0.004,0.011 -0.006,0.016l-0.024 0.079c-0.003,0.007 -0.01,0.024 -0.013,0.029 -0.061,0.13 -0.061,0.185 -0.106,0.288l-0.033 0.05c-0.044,0.06 -0.041,0.124 -0.067,0.203 -0.002,0.005 -0.004,0.011 -0.005,0.016 -0.002,0.005 -0.003,0.01 -0.005,0.015l-0.08 0.149c-0.039,0.11 -0.011,0.103 -0.078,0.233l-0.101 0.273c-0.002,0.005 -0.003,0.011 -0.005,0.016 -0.002,0.005 -0.004,0.01 -0.005,0.015l-0.178 0.445c-0.002,0.005 -0.004,0.01 -0.006,0.016l-0.273 0.702c-0.003,0.006 -0.01,0.023 -0.013,0.029l-0.029 0.054c-0.002,0.004 -0.005,0.01 -0.007,0.014l-0.057 0.171c-0.011,0.035 -0.006,0.03 -0.019,0.064 -0.002,0.006 -0.01,0.023 -0.013,0.029l-0.035 0.068c-0.084,0.161 -0.04,0.185 -0.103,0.271 -0.082,0.109 -0.074,0.197 -0.14,0.338l-0.167 0.456c-0.043,0.132 -0.081,0.158 -0.106,0.226 -0.002,0.005 -0.003,0.011 -0.004,0.016 -0.005,0.015 -0.01,0.034 -0.015,0.048l-0.088 0.223c-0.002,0.004 -0.005,0.01 -0.006,0.015 -0.002,0.005 -0.004,0.01 -0.006,0.015l-0.059 0.189c-0.002,0.005 -0.004,0.011 -0.006,0.016l-0.125 0.331c-0.002,0.004 -0.005,0.01 -0.008,0.013 -0.102,0.162 -0.033,0.122 -0.115,0.279 -0.002,0.004 -0.005,0.01 -0.007,0.014l-0.083 0.208c-0.002,0.005 -0.004,0.01 -0.006,0.015l-0.019 0.063c-0.002,0.006 -0.003,0.011 -0.005,0.016l-0.012 0.03c-0.001,0.005 -0.004,0.01 -0.006,0.015l-0.15 0.349c-0.027,0.039 -0.025,0.077 -0.036,0.129l-0.057 0.13c-0.002,0.004 -0.005,0.009 -0.007,0.014l-0.087 0.224c-0.008,0.026 -0.01,0.039 -0.019,0.064l-0.1 0.253c-0.042,0.129 -0.08,0.122 -0.097,0.214 -0.021,0.111 -0.054,0.155 -0.1,0.254l-0.151 0.409c-0.001,0.006 -0.003,0.011 -0.004,0.017l-0.293 0.766c-0.002,0.004 -0.005,0.009 -0.007,0.013l-0.144 0.334c-0.001,0.005 -0.003,0.011 -0.004,0.016l-0.174 0.491c-0.027,0.073 -0.067,0.106 -0.096,0.195 -0.001,0.005 -0.004,0.01 -0.005,0.015l-0.025 0.121c-0.014,0.057 -0.05,0.062 -0.075,0.132 -0.002,0.006 -0.003,0.011 -0.004,0.017l-0.097 0.256c-0.054,0.115 -0.033,0.133 -0.077,0.234 -0.002,0.005 -0.004,0.01 -0.007,0.014l-0.027 0.036c-0.044,0.06 -0.041,0.124 -0.066,0.203 -0.002,0.005 -0.004,0.011 -0.006,0.016 -0.001,0.005 -0.003,0.01 -0.004,0.016 -0.015,0.048 -0.006,0.06 -0.048,0.097 -0.023,0.021 -0.003,0.007 -0.041,0.021l0 0.042c0.086,0.031 -0.009,-0.011 0.062,0.042l0.325 0.255c0.004,0.003 0.01,0.006 0.014,0.008l0.439 0.35c0.011,0.01 0.028,0.025 0.033,0.028l0.288 0.211c0.045,0.032 0.048,0.055 0.099,0.088l0.262 0.195c0.068,0.043 0.091,0.108 0.181,0.11l0 0.083 0.194 0.118c0.068,0.04 0.084,0.077 0.179,0.131 0.052,0.03 0.015,-0.001 0.063,0.041l0.166 0.125c0.022,0.018 0.024,0.023 0.051,0.053 0.059,0.061 0.137,0.091 0.199,0.155l0.477 0.373c0.004,0.003 0.009,0.005 0.013,0.007 0.004,0.003 0.01,0.005 0.014,0.008l0.194 0.158c0.07,0.041 0.11,0.111 0.18,0.152l0.305 0.257c0.148,0.084 0.489,0.468 0.602,0.581 0.021,0.021 0.026,0.026 0.052,0.052l0.093 0.114c0.035,0.06 0.065,0.065 0.135,0.156l0.156 0.239c0.036,0.04 0.01,0 0.052,0.052l0.551 1.089c0.001,0.005 0.003,0.01 0.005,0.015 0.002,0.006 0.004,0.011 0.006,0.016l0.059 0.148c0.002,0.005 0.005,0.009 0.007,0.014 0.002,0.004 0.005,0.009 0.007,0.013l0.011 0.03c0.002,0.006 0.003,0.011 0.004,0.017 0.006,0.032 0.002,0.048 0.005,0.079l0.115 0.403c0.018,0.063 0.001,0.133 0.01,0.198 0.014,0.105 0.032,0.038 0.041,0.146 0.002,0.025 0,0.077 0,0.104l-0.001 0.582c0,0.126 0.022,0.275 -0.02,0.394 -0.029,0.082 -0.014,0.217 -0.046,0.307l-0.032 0.093c-0.001,0.005 -0.004,0.01 -0.005,0.015l-0.167 0.373c-0.09,0.228 -0.043,0.084 -0.131,0.264 -0.002,0.004 -0.004,0.01 -0.006,0.015l-0.112 0.179c-0.071,0.148 -0.032,0.023 -0.111,0.179 -0.058,0.114 -0.088,0.12 -0.144,0.209l-0.125 0.165c-0.02,0.041 -0.013,0.014 -0.014,0.069l-0.083 0c-0.001,0.035 0.002,0.023 -0.009,0.055 -0.001,0.004 -0.003,0.01 -0.005,0.015l-0.416 0.414c-0.145,0.091 -0.154,0.151 -0.276,0.222 -0.004,0.003 -0.01,0.005 -0.014,0.007l-0.098 0.069c0,0 -0.026,0.015 -0.027,0.015l-0.469 0.298c-0.005,0.002 -0.01,0.004 -0.015,0.006l-0.08 0.024c-0.071,0.025 -0.102,0.064 -0.195,0.096 -0.005,0.001 -0.01,0.004 -0.015,0.005 -0.005,0.002 -0.01,0.005 -0.015,0.006l-0.111 0.014 0 0.083c0.188,0 0.069,0.001 0.168,0.061 0.023,0.014 0,0.007 0.044,0.018l0.135 0.03c0.003,0.002 0.031,0.017 0.041,0.022l0.207 0.104c0.005,0.003 0.01,0.005 0.014,0.007l0.124 0.063c0.007,0.004 0.053,0.041 0.059,0.046 0.003,0.002 0.009,0.005 0.012,0.008l0.165 0.105c0.085,0.05 0.13,0.156 0.236,0.159l0 0.083c0.134,0.003 0.143,0.125 0.302,0.279l0.293 0.454c0.002,0.005 0.011,0.023 0.014,0.028l0.097 0.193c0.053,0.104 0.06,0.212 0.096,0.319l0.057 0.11c0.017,0.05 0.007,0.012 0.012,0.07 0.003,0.032 -0.001,0.044 0.006,0.078 0.017,0.085 0.038,0.101 0.037,0.212 -0.002,0.165 0.024,0.693 -0.005,0.827 -0.02,0.096 -0.006,0.007 -0.022,0.06 -0.018,0.056 -0.013,0.151 -0.041,0.208 -0.054,0.109 -0.065,0.214 -0.102,0.314 -0.017,0.045 -0.004,0.02 -0.028,0.054 -0.056,0.081 -0.021,-0.006 -0.057,0.11l-0.009 0.032c-0.002,0.007 -0.01,0.024 -0.012,0.03l-0.196 0.343c-0.003,0.004 -0.007,0.009 -0.009,0.013 -0.044,0.06 -0.057,0.032 -0.06,0.127l-0.083 0c-0.002,0.11 -0.122,0.139 -0.124,0.249 -0.104,0.002 -0.122,0.021 -0.125,0.125l-0.124 0.062c-0.04,0.042 -0.064,0.061 -0.125,0.062l0 0.083c-0.036,0.001 -0.022,-0.002 -0.054,0.009l-0.472 0.275c-0.004,0.002 -0.01,0.005 -0.014,0.007 -0.004,0.002 -0.009,0.005 -0.014,0.007 -0.004,0.002 -0.009,0.005 -0.013,0.007l-0.207 0.084c-0.005,0.002 -0.01,0.004 -0.015,0.006l-0.153 0.055c-0.021,0.011 0.003,0.017 -0.083,0.041 -0.065,0.017 -0.114,0.001 -0.25,0.04 -0.012,0.004 -0.027,0.007 -0.043,0.009l-0.885 0c-0.021,-0.002 -0.042,-0.006 -0.067,-0.014l-0.388 -0.111c-0.051,-0.009 -0.023,0 -0.069,-0.014l-0.319 -0.137c-0.006,-0.002 -0.011,-0.004 -0.016,-0.005l-0.704 -0.501c-0.13,-0.073 -0.053,-0.053 -0.138,-0.153 -0.068,-0.08 -0.159,-0.147 -0.215,-0.241l-0.333 -0.58c-0.002,-0.005 -0.005,-0.01 -0.008,-0.014l-0.023 -0.08c-0.002,-0.007 -0.001,-0.012 -0.002,-0.019 -0.009,-0.057 -0.031,-0.074 -0.062,-0.125l-0.059 -0.211c-0.012,-0.058 0.002,-0.122 -0.005,-0.181 -0.012,-0.092 -0.041,-0.113 -0.069,-0.202l-0.015 -0.088c-0.014,-0.348 -0.008,-0.359 0.046,-0.622l0.039 -0.148c0.001,-0.026 -0.002,-0.057 0,-0.083l0.026 -0.098c0.002,-0.006 0.004,-0.01 0.005,-0.016 0.002,-0.005 0.003,-0.011 0.004,-0.016l0.278 -0.657c0.004,-0.005 0.015,-0.018 0.019,-0.023l0.106 -0.184c0,-0.001 0.036,-0.046 0.037,-0.046l0.037 -0.067c0.001,-0.001 0.036,-0.045 0.037,-0.046l0.212 -0.245c0.04,-0.06 0.045,-0.039 0.096,-0.07 0.067,-0.04 -0.033,0.028 0.025,-0.017 0.054,-0.041 -0.004,0.007 0.042,-0.04 0.207,-0.21 0.147,-0.12 0.26,-0.218l0.077 -0.068c0.041,-0.029 0.049,-0.011 0.068,-0.057 -0.257,0 -0.513,-0.001 -0.77,-0.002 -0.144,0 -0.185,0.045 -0.33,0.043l-1.891 0c-2.215,0 -4.431,0.021 -6.646,-0.001l-14.495 0.043 0.071 0.136c0.029,0.028 0.004,0.007 0.032,0.031l0.049 0.033c0.093,0.054 0.168,0.142 0.242,0.215 0.005,0.004 0.017,0.016 0.022,0.02 0.054,0.053 0.08,0.036 0.082,0.146l0.084 0c0.001,0.097 0.06,0.102 0.11,0.18 0.011,0.016 0.021,0.039 0.028,0.055 0.008,0.015 0.006,0.012 0.014,0.028l0.055 0.09c0.004,0.005 0.015,0.018 0.019,0.023l0.134 0.26c0.005,0.01 0.013,0.025 0.021,0.041l0.127 0.372c0.001,0.005 0.003,0.01 0.005,0.015l0.04 0.209c0.036,0.118 0.071,0.191 0.07,0.325 -0.003,0.262 0.035,0.433 -0.032,0.675l-0.051 0.219c-0.007,0.067 0.004,0.046 -0.015,0.109 -0.002,0.007 -0.01,0.023 -0.012,0.03l-0.042 0.166c-0.002,0.004 -0.005,0.009 -0.007,0.013 -0.002,0.004 -0.005,0.009 -0.007,0.013 -0.041,0.078 -0.048,0.162 -0.098,0.235l-0.411 0.627c-0.109,0.136 -0.007,0.042 -0.26,0.301 -0.023,0.024 -0.043,0.047 -0.077,0.068 -0.087,0.055 -0.12,0.106 -0.195,0.159l-0.026 0.015c-0.004,0.002 -0.01,0.005 -0.013,0.007 -0.004,0.002 -0.01,0.005 -0.014,0.007 -0.004,0.003 -0.009,0.005 -0.013,0.008l-0.126 0.082c-0.004,0.002 -0.009,0.005 -0.014,0.006 -0.004,0.003 -0.01,0.005 -0.014,0.007 -0.004,0.002 -0.01,0.004 -0.014,0.007 -0.006,0.003 -0.022,0.011 -0.028,0.014 -0.107,0.065 -0.051,0.045 -0.178,0.091l-0.445 0.178c0,0 -0.031,0.018 -0.04,0.023l-0.041 0.021c-0.065,0.023 -0.121,0.003 -0.191,0.017 -0.106,0.021 0.017,0.018 -0.109,0.036l-0.007 0.001 -0.74 0 -0.243 -0.027c-0.067,-0.021 -0.077,-0.006 -0.147,-0.019 -0.006,-0.001 -0.011,-0.002 -0.017,-0.004l-0.388 -0.13c-0.067,-0.032 -0.049,-0.046 -0.151,-0.079 -0.077,-0.024 -0.139,-0.087 -0.209,-0.122l-0.257 -0.158c-0.027,-0.024 -0.034,-0.043 -0.076,-0.07l-0.214 -0.18c-0.049,-0.048 -0.097,-0.097 -0.146,-0.145l-0.124 -0.145c-0.003,-0.005 -0.005,-0.01 -0.007,-0.014l-0.228 -0.333c-0.003,-0.006 -0.011,-0.022 -0.014,-0.028 -0.022,-0.04 -0.01,-0.019 -0.024,-0.039 -0.074,-0.104 -0.077,-0.155 -0.128,-0.265l-0.162 -0.441c-0.001,-0.004 -0.004,-0.01 -0.006,-0.014l-0.046 -0.266c-0.031,-0.11 -0.021,-0.739 0,-0.813l0.012 -0.029c0.041,-0.115 0.008,-0.185 0.07,-0.304 0.003,-0.005 0.006,-0.009 0.008,-0.014 0.031,-0.065 0.029,-0.127 0.052,-0.196l0.02 -0.064c0.002,-0.005 0.003,-0.011 0.005,-0.015l0.441 -0.764c0.09,-0.153 0.306,-0.353 0.449,-0.443 0.011,-0.007 0.029,-0.021 0.036,-0.027 0.092,-0.081 0.121,-0.066 0.145,-0.125l-2.015 0c-0.257,0.002 -0.202,0.022 -0.228,-0.041l-0.249 0c-0.019,-0.053 -0.034,-0.064 -0.086,-0.081 -0.029,-0.009 -0.03,-0.004 -0.066,-0.017l-0.274 -0.141c-0.085,-0.067 -0.316,-0.292 -0.364,-0.383l-0.121 -0.212c-0.035,-0.098 -0.049,-0.208 -0.102,-0.314 -0.066,-0.133 -0.037,-0.425 0.006,-0.544l0.141 -0.398c0.051,-0.103 0.102,-0.137 0.152,-0.222l0.09 -0.118c0.016,-0.015 0.027,-0.026 0.042,-0.041 0.007,-0.007 0.036,-0.037 0.041,-0.042l0.264 -0.172c0.004,-0.002 0.009,-0.005 0.013,-0.008 0.005,-0.003 0.022,-0.011 0.027,-0.014l0.361 -0.138c0.023,-0.008 -0.029,-0.006 0.063,-0.019l7.885 -0.028c0.107,-0.036 6.109,-0.023 7.047,-0.014 0.071,0.001 0.093,0.004 0.151,-0.015 0.056,-0.019 -0.037,-0.002 0.06,-0.023 0.204,-0.044 15.301,0.031 15.484,-0.008 0.098,-0.021 0.004,-0.004 0.06,-0.023 0.112,-0.038 0.231,0.01 0.333,-0.041l0.25 -0.082 0.427 -0.28c0.002,-0.004 0.005,-0.009 0.007,-0.013 0.047,-0.078 -0.032,0.05 0.015,-0.027 0.002,-0.004 0.005,-0.009 0.007,-0.013l0.089 -0.182c0.04,-0.095 0.088,-0.164 0.103,-0.27 0.005,-0.039 0.001,-0.122 0.001,-0.165 -0.001,-0.177 0.014,-0.303 -0.032,-0.467l-0.19 -0.495c-0.002,-0.004 -0.004,-0.01 -0.006,-0.014l-0.035 -0.069c-0.062,-0.128 -0.194,-0.274 -0.228,-0.333 -0.003,-0.003 -0.005,-0.009 -0.007,-0.013l-0.72 -0.63c-0.066,-0.039 -0.104,-0.105 -0.167,-0.145 -0.004,-0.002 -0.009,-0.005 -0.014,-0.007l-0.221 -0.132 0 -0.083c-0.056,-0.001 -0.027,0.005 -0.069,-0.013l-0.356 -0.267c-0.032,-0.026 -0.017,-0.017 -0.032,-0.031 -0.014,-0.014 0.001,-0.006 -0.031,-0.031 -0.031,-0.024 -0.006,-0.006 -0.038,-0.024 -0.085,-0.05 -0.149,-0.13 -0.235,-0.18 -0.004,-0.003 -0.01,-0.005 -0.013,-0.008l-0.362 -0.303c-0.128,-0.082 -0.12,-0.112 -0.207,-0.166l-0.18 -0.132c-0.09,-0.053 -0.144,-0.127 -0.235,-0.18 -0.074,-0.043 -0.133,-0.123 -0.208,-0.166l-0.166 -0.125c-0.032,-0.019 -0.007,0.001 -0.038,-0.024 -0.072,-0.059 -0.03,-0.091 -0.156,-0.093l0 -0.083c-0.122,-0.003 -0.128,-0.078 -0.221,-0.132l-0.347 -0.277c-0.087,-0.051 -0.149,-0.13 -0.235,-0.18l-0.619 -0.481c-0.032,-0.024 -0.016,-0.014 -0.032,-0.03 -0.002,-0.001 -0.023,-0.024 -0.031,-0.032l-0.44 -0.349c-0.057,-0.035 -0.088,-0.038 -0.11,-0.097l-0.54 0c-0.023,-0.057 0.012,-0.019 -0.045,-0.038 -0.009,-0.003 -0.065,-0.006 -0.077,-0.006 -0.165,-0.001 -0.435,0.016 -0.557,-0.025 -0.063,-0.021 -0.161,-0.004 -0.231,-0.018 -0.148,-0.032 -0.058,-0.039 -0.294,-0.038 -0.075,0.001 -0.268,0.009 -0.329,-0.004 -0.097,-0.021 -0.003,-0.004 -0.06,-0.023 -0.16,-0.054 -0.4,0.017 -0.563,-0.018 -0.097,-0.021 -0.004,-0.005 -0.06,-0.023 -0.057,-0.019 -0.148,-0.007 -0.213,-0.016 -0.152,-0.021 0.026,-0.017 -0.126,-0.039 -0.219,-0.032 -0.356,0.044 -0.631,-0.034 -0.172,-0.049 -0.373,0.025 -0.548,-0.013 -0.098,-0.021 -0.004,-0.004 -0.06,-0.023 -0.074,-0.025 -0.15,-0.001 -0.231,-0.018 -0.086,-0.019 -0.1,-0.04 -0.211,-0.039 -0.138,0.002 -0.356,0.03 -0.485,-0.013 -0.161,-0.055 -0.422,0 -0.615,-0.028 -0.152,-0.022 0.026,-0.019 -0.127,-0.039l-0.215 -0.034c-0.116,-0.033 -0.265,-0.01 -0.386,-0.009 -0.074,0 -0.173,0.006 -0.235,-0.015 -0.151,-0.051 -0.453,0.016 -0.623,-0.041l-0.217 -0.032c-0.12,-0.024 0.037,-0.015 -0.11,-0.036 -0.185,-0.027 -0.42,0.043 -0.601,-0.022 -0.2,-0.071 -0.458,0.029 -0.65,-0.035 -0.06,-0.02 0.039,-0.002 -0.061,-0.023 -0.031,-0.006 -0.047,-0.003 -0.078,-0.004l-0.139 -0.027c-0.185,-0.062 -0.452,0.033 -0.636,-0.029 -0.056,-0.019 0.037,-0.002 -0.06,-0.023 -0.025,-0.005 -0.052,-0.005 -0.078,-0.005 -0.146,-0.003 -0.331,0.032 -0.47,-0.008l-0.029 -0.012c-0.1,-0.036 -0.204,-0.013 -0.306,-0.048l-0.087 -0.015c-0.168,-0.008 -0.393,0.039 -0.548,-0.013 -0.157,-0.053 -0.45,0.016 -0.623,-0.042 -0.082,-0.028 -0.21,-0.014 -0.291,-0.041 -0.056,-0.019 0.037,-0.002 -0.06,-0.024 -0.179,-0.038 -0.375,0.022 -0.556,-0.004 -0.102,-0.016 -0.03,-0.008 -0.063,-0.02 -0.033,-0.012 0.039,-0.005 -0.063,-0.02 -0.135,-0.02 -0.281,0 -0.416,0 -0.154,0.001 -0.121,-0.043 -0.268,-0.043 -0.131,-0.001 -0.159,-0.041 -0.29,-0.043 -0.163,-0.002 -0.338,0.017 -0.501,0.003 -0.061,-0.006 -0.024,-0.001 -0.068,-0.015 -0.13,-0.045 -0.379,0.005 -0.524,-0.036 -0.005,-0.002 -0.01,-0.004 -0.015,-0.006 -0.102,-0.034 -0.205,-0.012 -0.306,-0.048 -0.22,-0.078 -0.486,0.037 -0.706,-0.042 -0.149,-0.053 -0.42,-0.002 -0.554,-0.047 -0.064,-0.022 -0.163,-0.008 -0.236,-0.014 -0.061,-0.005 -0.024,-0.001 -0.068,-0.015 -0.175,-0.059 -0.497,0.019 -0.691,-0.036l-0.467 -0.031c-0.039,-0.002 -0.037,-0.001 -0.073,-0.01 -0.163,-0.047 -0.265,-0.02 -0.347,-0.048 -0.056,-0.019 0.038,-0.002 -0.06,-0.023 -0.025,-0.005 -0.051,-0.005 -0.077,-0.005 -0.161,-0.003 -0.344,0.016 -0.501,0.002 -0.062,-0.005 -0.025,0 -0.068,-0.015 -0.088,-0.03 -0.269,-0.024 -0.39,-0.026 -0.109,-0.001 -0.094,-0.028 -0.186,-0.042 -0.017,-0.002 -0.062,-0.002 -0.081,-0.002 -0.252,0.002 -0.176,-0.022 -0.293,-0.039 -0.183,-0.027 -0.394,0.04 -0.572,-0.01 -0.2,-0.057 -0.29,-0.008 -0.464,-0.034 -0.138,-0.02 0.011,-0.019 -0.127,-0.039 -0.017,-0.003 -0.062,-0.002 -0.081,-0.002 -0.053,0 -0.117,0.004 -0.169,0.002l-0.131 -0.034c-0.048,-0.014 -0.105,-0.01 -0.157,-0.009 -0.161,0.002 -0.405,0.016 -0.534,-0.027 -0.111,-0.037 -0.279,0.007 -0.387,-0.029l-0.137 -0.029c-0.102,-0.001 -0.227,0.019 -0.32,-0.012l-0.75 -0.06c-0.1,-0.029 -0.218,0.006 -0.322,-0.01 -0.108,-0.016 -0.061,-0.044 -0.272,-0.04l-0.36 -0.055 -0.374 -0.187c-0.096,-0.058 -0.263,-0.218 -0.387,-0.36 -0.005,-0.004 -0.016,-0.017 -0.019,-0.022l-0.143 -0.294c-0.002,-0.005 -0.003,-0.011 -0.004,-0.016l-0.098 -0.38c-0.018,-0.056 -0.002,0.036 -0.022,-0.061 -0.009,-0.04 -0.005,-0.118 -0.005,-0.161 0.003,-0.248 -0.039,-0.226 -0.04,-0.459 0,-0.102 -0.031,-0.132 -0.043,-0.289 -0.005,-0.065 0.001,-0.022 -0.014,-0.068 -0.052,-0.156 -0.002,-0.33 -0.054,-0.486 -0.002,-0.005 -0.004,-0.01 -0.006,-0.015 -0.026,-0.093 -0.003,-0.179 -0.036,-0.276 -0.001,-0.005 -0.004,-0.01 -0.005,-0.015 -0.022,-0.075 0.003,-0.157 -0.018,-0.232 -0.001,-0.005 -0.004,-0.01 -0.005,-0.015 -0.002,-0.005 -0.005,-0.009 -0.007,-0.014 -0.05,-0.141 -0.006,-0.345 -0.048,-0.471 -0.024,-0.074 -0.001,-0.15 -0.018,-0.23 -0.021,-0.099 -0.004,-0.004 -0.023,-0.061 -0.027,-0.08 -0.014,-0.207 -0.042,-0.29 -0.037,-0.111 0.001,-0.342 -0.035,-0.442l-0.048 -0.264c-0.027,-0.08 -0.013,-0.257 -0.035,-0.318 -0.036,-0.1 0.002,-0.331 -0.036,-0.442l-0.054 -0.278c-0.033,-0.1 0.005,-0.204 -0.028,-0.304 -0.02,-0.056 -0.003,0.038 -0.023,-0.059 -0.017,-0.079 -0.004,-0.167 -0.004,-0.246 0.001,-0.111 -0.02,-0.127 -0.037,-0.212l-0.026 -0.161c-0.002,-0.005 -0.005,-0.009 -0.006,-0.014 -0.034,-0.104 0.006,-0.227 -0.023,-0.33 -0.073,-0.256 0.005,-0.315 -0.048,-0.472l-0.036 -0.192c-0.044,-0.166 -0.016,-0.29 -0.059,-0.418 -0.039,-0.115 0.007,-0.276 -0.019,-0.397 -0.021,-0.096 -0.006,-0.007 -0.023,-0.06 -0.016,-0.051 -0.007,-0.003 -0.013,-0.069 -0.013,-0.123 -0.045,-0.147 -0.044,-0.268 0.002,-0.252 -0.022,-0.175 -0.04,-0.293 -0.013,-0.093 0.012,-0.237 -0.001,-0.33l-0.062 -0.229c-0.041,-0.121 0.005,-0.283 -0.035,-0.401 -0.019,-0.057 -0.002,0.037 -0.023,-0.06 -0.031,-0.145 0.032,-0.202 -0.036,-0.442l-0.031 -0.135c-0.001,-0.005 -0.004,-0.01 -0.006,-0.015 -0.036,-0.111 0.009,-0.276 -0.029,-0.386 -0.04,-0.12 -0.02,-0.24 -0.025,-0.369l-0.046 -0.203c-0.014,-0.071 -0.04,-0.109 -0.04,-0.209 0.001,-0.317 -0.043,-0.252 -0.041,-0.437 0.003,-0.231 -0.007,-0.152 -0.036,-0.296 -0.013,-0.068 0.003,-0.077 -0.019,-0.147l-0.054 -0.444c-0.032,-0.094 -0.005,-0.212 -0.014,-0.318 -0.005,-0.062 -0.001,-0.026 -0.015,-0.068l-0.042 -0.207c-0.017,-0.053 -0.002,0.036 -0.023,-0.061 -0.022,-0.105 0.015,-0.218 -0.008,-0.324 -0.021,-0.097 -0.004,-0.004 -0.023,-0.06 -0.039,-0.116 0.005,-0.284 -0.035,-0.401l-0.011 -0.03c-0.01,-0.038 -0.006,-0.036 -0.012,-0.071l-0.008 -0.034c-0.072,-0.259 0.005,-0.326 -0.052,-0.487 -0.034,-0.095 0.001,-0.287 -0.035,-0.401l-0.065 -0.226c-0.005,-0.025 -0.005,-0.052 -0.006,-0.078 -0.004,-0.362 -0.034,-0.289 -0.04,-0.402l0 -0.652c0.005,-0.044 0.011,-0.082 0.021,-0.11l0.069 -0.222c0.002,-0.004 0.005,-0.009 0.007,-0.013 0.002,-0.004 0.005,-0.01 0.007,-0.014l0.048 -0.097c0.002,-0.004 0.004,-0.01 0.007,-0.014l0.09 -0.138c0.003,-0.004 0.005,-0.01 0.008,-0.014l0.075 -0.09c0.055,-0.053 0.098,-0.098 0.156,-0.156l0.191 -0.141c0.008,-0.005 0.05,-0.028 0.054,-0.029 0.006,-0.003 0.023,-0.01 0.029,-0.012l0.032 -0.01c0.036,-0.012 0.028,-0.005 0.064,-0.019l0.236 -0.096c0.158,-0.051 0.379,-0.005 0.549,-0.013 0.039,-0.001 0.037,0 0.073,-0.01 0.004,-0.001 0.009,-0.004 0.014,-0.005l0.029 -0.013c0.239,-0.08 0.798,0.056 1.051,-0.029 0.251,-0.084 1.563,0.023 1.771,-0.036 0.005,-0.001 0.01,-0.004 0.015,-0.006 0.257,-0.086 2.016,0.025 2.228,-0.036 0.34,-0.096 0.774,0.033 1.012,-0.047l1.614 -0.026c0.139,0.001 0.181,-0.039 0.289,-0.044 0.395,-0.017 1.959,0.036 2.111,-0.007l0.029 -0.012c0.134,-0.048 0.294,-0.021 0.437,-0.021 0.11,0 0.221,0 0.332,0.001l0.216 -0.034c0.243,-0.069 1.056,-0.008 1.362,-0.008 0.154,0 0.307,0.021 0.451,-0.028 0.171,-0.057 1.837,0.014 2.146,-0.013 0.061,-0.005 0.024,-0.001 0.068,-0.015 0.056,-0.019 -0.038,-0.002 0.06,-0.023 0.221,-0.048 0.579,0.043 0.799,-0.031 0.223,-0.076 1.713,0.053 1.994,-0.042 0.127,-0.043 1.595,-0.015 1.875,-0.014 0.053,0 0.117,0.003 0.168,0.001 0.039,-0.002 0.038,0 0.073,-0.01 0.259,-0.074 0.587,-0.008 0.861,-0.032 0.09,-0.008 0.043,-0.02 0.128,-0.038 0.132,-0.029 1.413,-0.005 1.616,-0.004l0.305 -0.028c0.127,-0.042 1.673,-0.015 1.958,-0.014 0.258,0.002 0.17,-0.015 0.274,-0.037 0.164,-0.036 0.552,0.032 0.74,-0.009 0.097,-0.02 0.003,-0.003 0.06,-0.023 0.058,-0.019 0.08,-0.016 0.151,-0.015l1.622 0.002c0.131,-0.001 0.155,-0.045 0.288,-0.043 0.307,0.003 1.812,0.023 1.973,0 0.151,-0.023 -0.025,-0.018 0.126,-0.04 0.034,-0.005 0.108,-0.002 0.145,-0.001 0.11,0.001 0.221,0 0.332,0 0.074,0 0.173,0.007 0.235,-0.015 0.186,-0.062 1.364,-0.027 1.697,-0.026 0.197,0 0.238,0.037 0.27,-0.042l1.619 0c0,-0.086 0.022,-0.121 0.056,-0.193l0.073 -0.218c0.002,-0.005 0.003,-0.011 0.005,-0.016l0.053 -0.113c0.059,-0.111 0.043,-0.163 0.077,-0.234 0.046,-0.098 0.03,0 0.114,-0.26 0.002,-0.005 0.003,-0.011 0.005,-0.016l0.084 -0.206c0.002,-0.006 0.004,-0.011 0.005,-0.016 0.002,-0.005 0.004,-0.01 0.006,-0.015l0.104 -0.27c0.007,-0.021 0.01,-0.032 0.015,-0.047 0.054,-0.162 0.05,-0.098 0.095,-0.196l0.045 -0.183c0.006,-0.017 0.01,-0.036 0.014,-0.048l0.057 -0.089c0.002,-0.003 0.006,-0.009 0.008,-0.013l0.012 -0.029c0.002,-0.006 0.002,-0.011 0.004,-0.017l0.025 -0.078c0.002,-0.005 0.004,-0.011 0.006,-0.016 0.001,-0.005 0.003,-0.01 0.005,-0.016l0.025 -0.078c0.002,-0.004 0.005,-0.01 0.007,-0.014l0.051 -0.114c0.007,-0.02 0.008,-0.028 0.015,-0.049l0.14 -0.378c0.037,-0.111 0.079,-0.15 0.114,-0.26l0.036 -0.11c0.001,-0.005 0.003,-0.01 0.005,-0.015l0.06 -0.127c0.008,-0.026 0.01,-0.039 0.019,-0.064 0.001,-0.006 0.003,-0.011 0.005,-0.016 0.001,-0.005 0.004,-0.01 0.005,-0.015 0.002,-0.005 0.004,-0.011 0.006,-0.015l0.047 -0.119c0.075,-0.106 0.03,-0.071 0.077,-0.214l0.019 -0.064c0.042,-0.113 0.047,-0.025 0.085,-0.206l0.355 -0.849c0.001,-0.005 0.003,-0.01 0.005,-0.016 0.017,-0.065 0.012,-0.104 0.042,-0.165l0.1 -0.274c0.014,-0.051 -0.002,-0.004 0.017,-0.044l0.043 -0.082c0.003,-0.004 0.005,-0.01 0.008,-0.014l0.021 -0.041c0.002,-0.004 0.004,-0.01 0.006,-0.014 0.002,-0.005 0.004,-0.01 0.006,-0.015l0.113 -0.302c0.002,-0.007 0.009,-0.025 0.011,-0.031l0.042 -0.124c0.032,-0.069 0.077,-0.122 0.093,-0.198 0.035,-0.171 0.051,-0.109 0.103,-0.27l0.255 -0.68c0.046,-0.138 0.07,-0.129 0.101,-0.211l0.03 -0.094c0.025,-0.086 0.012,-0.108 0.066,-0.183l0.087 -0.245c0.002,-0.005 0.004,-0.01 0.006,-0.014l0.078 -0.192c0.002,-0.005 0.004,-0.011 0.006,-0.016 0.039,-0.118 0.078,-0.145 0.095,-0.195 0.014,-0.041 0.008,-0.072 0.023,-0.122 0.027,-0.094 0.088,-0.171 0.116,-0.259l0.209 -0.517c0.002,-0.004 0.004,-0.01 0.007,-0.014l0.346 -0.422c0.115,-0.067 0.125,-0.104 0.277,-0.18l0.041 -0.021c0.004,-0.002 0.01,-0.005 0.014,-0.007l0.222 -0.068c0.199,-0.065 0.09,-0.028 0.286,-0.068 0.095,-0.019 0.009,-0.021 0.109,-0.036 0.04,-0.005 0.104,0.001 0.146,0.001l0.154 -0.033c0.005,-0.002 0.011,-0.003 0.017,-0.004l0.322 -0.052c0.098,-0.02 0.014,-0.035 0.255,-0.036l0.138 -0.027c0.005,-0.002 0.01,-0.004 0.016,-0.006l0.445 -0.094c0.084,-0.004 0.196,0.009 0.273,-0.018 0.005,-0.002 0.01,-0.005 0.014,-0.006l0.047 -0.016c0.062,-0.021 0.086,-0.039 0.165,-0.042 0.104,-0.004 0.104,-0.018 0.192,-0.037l0.38 -0.056c0.104,-0.037 0.206,-0.012 0.308,-0.046 0.056,-0.019 -0.038,-0.001 0.06,-0.023 0.021,-0.004 0.034,-0.004 0.056,-0.005 0.306,-0.011 0.167,-0.018 0.384,-0.073 0.066,-0.017 0.147,-0.004 0.206,-0.023 0.102,-0.034 0.214,-0.008 0.317,-0.035l0.123 -0.044c0.005,-0.002 0.01,-0.004 0.015,-0.006 0.006,-0.002 0.023,-0.009 0.03,-0.012 0.067,-0.021 0.196,-0.005 0.262,-0.028 0.005,-0.002 0.024,-0.011 0.029,-0.013 0.005,-0.001 0.01,-0.004 0.015,-0.005 0.091,-0.026 0.198,0.007 0.289,-0.022 0.072,-0.023 0.125,-0.059 0.202,-0.069 0.044,-0.006 0.101,0.003 0.145,0l0.097 -0.028c0.005,-0.002 0.01,-0.004 0.015,-0.006 0.07,-0.02 0.143,0.002 0.215,-0.012l0.093 -0.033c0.005,-0.002 0.01,-0.003 0.015,-0.005l0.108 -0.038c0.023,-0.004 0.035,-0.004 0.057,-0.005 0.204,-0.006 0.132,-0.022 0.252,-0.039 0.07,-0.01 0.152,0.009 0.223,-0.005 0.055,-0.011 0.032,-0.01 0.047,-0.016l0.045 -0.017c0.005,-0.001 0.011,-0.003 0.016,-0.005 0.022,-0.007 0.031,-0.01 0.046,-0.015l0.119 -0.027c0.207,-0.006 0.133,-0.023 0.251,-0.04 0.211,-0.029 0.111,0.024 0.336,-0.058l0.03 -0.012c0.058,-0.018 0.063,-0.014 0.132,-0.013 0.023,0 0.06,0.001 0.082,-0.002 0.09,-0.012 0.062,-0.034 0.147,-0.04zm-16.739 45.358c-0.021,-0.057 0.013,-0.161 0.027,-0.201l0.015 -0.068c0.006,-0.07 -0.013,-0.152 0.007,-0.221 0.001,-0.005 0.003,-0.011 0.005,-0.016l0.021 -0.041c0.044,-0.085 -0.029,0.06 0.015,-0.026l0.182 -0.4c0.004,-0.006 0.039,-0.05 0.045,-0.059 0.002,-0.004 0.005,-0.009 0.008,-0.013l0.014 -0.027c0.055,-0.093 0.156,-0.169 0.232,-0.246l0.273 -0.204c0.004,-0.003 0.009,-0.006 0.013,-0.008 0.003,-0.003 0.008,-0.006 0.012,-0.009 0.005,-0.003 0.054,-0.042 0.06,-0.044l0.156 -0.052c0.006,-0.001 0.025,-0.006 0.032,-0.009 0.005,-0.001 0.011,-0.003 0.016,-0.005l0.03 -0.011c0.119,-0.051 0.092,-0.061 0.25,-0.062 0.043,0 0.054,0.002 0.094,-0.009 0.005,-0.001 0.01,-0.004 0.015,-0.006 0.075,-0.025 0.189,-0.043 0.276,-0.018 0.005,0.001 0.01,0.004 0.015,0.006 0.004,0.001 0.009,0.004 0.014,0.006l0.578 0.148 0.346 0.236c0.028,0.028 0.035,0.034 0.062,0.062l0.125 0.125c0.01,0.009 0.031,0.029 0.032,0.03 0.016,0.016 0.033,0.034 0.047,0.057l0.125 0.207c0.083,0.171 0.058,0.024 0.103,0.229 0.01,0.046 0.013,0.04 0.015,0.047l0.026 0.119c0.002,0.006 0.003,0.012 0.004,0.017 0.002,0.006 0.004,0.011 0.005,0.016l0.012 0.03c0.069,0.201 0.09,0.408 0.015,0.628l-0.068 0.243c-0.015,0.053 -0.006,0.037 -0.016,0.088 -0.015,0.078 -0.039,0.072 -0.075,0.132 -0.003,0.006 -0.011,0.022 -0.014,0.028 -0.003,0.004 -0.005,0.009 -0.007,0.014l-0.484 0.554c-0.004,0.002 -0.009,0.005 -0.014,0.007l-0.181 0.11c-0.029,0.015 -0.016,0.006 -0.04,0.022 -0.111,0.075 -0.028,0.042 -0.175,0.074l-0.228 0.063c-0.164,0.049 -0.39,0.078 -0.54,0.03l-0.332 -0.083c-0.059,-0.018 -0.123,-0.019 -0.162,-0.046l-0.871 -0.978c-0.002,-0.005 -0.003,-0.01 -0.005,-0.015 -0.002,-0.005 -0.004,-0.01 -0.006,-0.015l-0.036 -0.067c-0.023,-0.047 -0.016,0.003 -0.026,-0.079l-0.001 -0.207c-0.02,-0.146 -0.012,0.001 -0.041,-0.083zm-12.835 -20.073l4.777 0 0 4.566c-0.11,0 -0.217,0.02 -0.318,-0.014l-0.044 -0.018c-0.084,-0.024 -0.163,0.001 -0.239,-0.01 -0.146,-0.021 0.008,-0.011 -0.109,-0.037 -0.097,-0.02 -0.36,0.022 -0.48,-0.018 -0.052,-0.017 -0.032,-0.025 -0.117,-0.028 -0.24,-0.011 -0.429,0.038 -0.618,-0.026 -0.116,-0.039 -0.187,0.01 -0.303,-0.029 -0.057,-0.019 0.037,-0.002 -0.061,-0.023 -0.025,-0.006 -0.051,-0.005 -0.077,-0.006 -0.085,-0.001 -0.235,0.012 -0.312,0.001 -0.147,-0.021 0.053,-0.043 -0.292,-0.041 -0.099,0.001 -0.381,0.014 -0.463,-0.014 -0.057,-0.019 0.037,-0.002 -0.06,-0.023 -0.025,-0.005 -0.052,-0.005 -0.078,-0.005 -0.357,-0.002 -0.109,-0.016 -0.272,-0.04 -0.202,-0.029 -0.337,0.038 -0.533,-0.028 -0.043,-0.014 -0.006,-0.009 -0.068,-0.015 -0.091,-0.008 -0.235,0.001 -0.333,0.001l0 -4.193zm-5.814 0l4.776 0 0 4.11 -0.097 -0.027c-0.134,-0.043 -0.503,0.016 -0.636,-0.029 -0.191,-0.064 -0.161,0.002 -0.291,-0.042 -0.231,-0.077 -0.414,0.017 -0.596,-0.048 -0.033,-0.011 0.038,-0.005 -0.063,-0.019l-0.561 -0.001c-0.149,-0.013 0.041,-0.031 -0.27,-0.041 -0.178,-0.005 0.053,-0.043 -0.456,-0.042 -0.048,0 -0.099,0.002 -0.147,0.001 -0.198,-0.002 0.004,-0.043 -0.455,-0.043 -0.505,0 -0.292,-0.021 -0.438,-0.04 -0.059,-0.008 -0.094,0.007 -0.156,-0.01 -0.005,-0.002 -0.009,-0.004 -0.014,-0.006l-0.098 -0.028c-0.043,-0.003 -0.119,0.001 -0.166,0.001 -0.111,0 -0.222,0 -0.332,0l0 -3.736zm-5.816 0l4.735 0 0 3.612c-0.202,0 -0.372,0.02 -0.513,-0.027 -0.043,-0.015 -0.006,-0.01 -0.067,-0.016l-0.561 0c-0.129,-0.019 0.004,-0.035 -0.188,-0.04 -0.031,-0.001 -0.046,0.001 -0.078,-0.005 -0.224,-0.045 -0.008,-0.037 -0.378,-0.037 -0.049,0 -0.098,0.001 -0.147,0.001 -0.019,0 -0.064,0.001 -0.081,-0.002 -0.119,-0.018 -0.007,-0.022 -0.127,-0.039l-0.248 -0.002c-0.511,0.001 -0.255,-0.018 -0.416,-0.04 -0.073,-0.009 -0.09,0.011 -0.172,-0.016 -0.014,-0.004 -0.014,-0.007 -0.028,-0.012 -0.173,-0.058 -0.356,0.045 -0.68,-0.047 -0.117,-0.034 -0.491,0.02 -0.621,-0.024 -0.057,-0.019 0.039,-0.002 -0.06,-0.022 -0.08,-0.017 -0.136,0.013 -0.231,-0.019 -0.023,-0.008 -0.007,-0.027 -0.139,-0.027l0 -3.238zm21.349 5.023l-0.083 0c-0.028,-0.071 0.013,-0.017 -0.066,-0.058 -0.06,-0.031 -0.003,-0.019 -0.099,-0.026 -0.037,-0.003 -0.088,0.003 -0.127,0.002 -0.013,0 -0.048,0 -0.06,-0.002 -0.103,-0.015 -0.029,-0.007 -0.063,-0.02l-0.102 -0.022c-0.109,-0.004 -0.291,0.018 -0.382,-0.013 -0.174,-0.059 -0.186,-0.012 -0.348,-0.026 -0.033,-0.003 -0.023,-0.001 -0.052,-0.01l-0.044 -0.018c-0.11,-0.037 -0.389,-0.011 -0.527,-0.013 -0.166,-0.002 -0.063,-0.031 -0.205,-0.044 -0.082,-0.007 -0.189,0.006 -0.273,0.002 -0.179,-0.007 -0.025,-0.036 -0.204,-0.044 -0.203,-0.008 -0.194,0.033 -0.369,-0.025 -0.093,-0.032 -0.275,-0.015 -0.381,-0.015 -0.108,0 -0.209,0.015 -0.297,-0.015 -0.099,-0.033 -0.04,-0.026 -0.18,-0.026l0 -4.65 4.735 0c0,0.153 0.029,2.683 -0.02,2.824 -0.001,0.005 -0.004,0.01 -0.006,0.015 -0.001,0.005 -0.004,0.01 -0.006,0.015 -0.007,0.021 -0.007,0.027 -0.014,0.048l-0.074 0.174c-0.002,0.006 -0.007,0.027 -0.009,0.033l-0.058 0.129c-0.002,0.004 -0.005,0.009 -0.007,0.014l-0.042 0.083c-0.021,0.064 -0.005,0.082 -0.033,0.153 -0.028,0.069 -0.078,0.126 -0.096,0.194l-0.014 0.091c-0.001,0.006 -0.002,0.011 -0.004,0.017l-0.267 0.666c-0.04,0.087 -0.08,0.126 -0.096,0.217 -0.016,0.096 0.02,0.031 -0.053,0.133 -0.043,0.061 0.021,-0.046 -0.017,0.025l-0.057 0.192zm-25.128 -5.023l2.7 0 -0.008 3.126c-0.023,0.084 0.002,-0.029 -0.034,0.07 -0.075,-0.027 0.008,-0.04 -0.208,-0.04 -0.101,0 -0.065,-0.003 -0.139,-0.028 -0.147,-0.05 -0.468,0.02 -0.62,-0.023 -0.217,-0.062 -0.198,-0.028 -0.488,-0.031 -0.065,-0.002 -0.058,0.001 -0.109,-0.017l-0.044 -0.018c-0.075,-0.021 -0.128,-0.004 -0.201,-0.006 -0.12,-0.004 -0.078,0.013 -0.102,-0.044l-0.373 0c0,-0.046 0.003,-0.052 -0.009,-0.095 -0.002,-0.005 -0.004,-0.01 -0.006,-0.015 -0.042,-0.127 -0.028,-0.087 -0.026,-0.265 0,-0.025 0.001,-0.079 -0.002,-0.102 -0.016,-0.115 -0.008,-0.023 -0.025,-0.078 -0.016,-0.051 -0.007,-0.034 -0.018,-0.086 -0.001,-0.006 -0.002,-0.012 -0.003,-0.018l-0.01 -0.032c-0.075,-0.237 0.03,-0.239 -0.053,-0.486 -0.049,-0.144 0.028,-0.202 -0.041,-0.416l-0.021 -0.104c-0.049,-0.209 -0.035,0.019 -0.034,-0.36 0,-0.227 -0.045,-0.023 -0.042,-0.373l-0.022 -0.144c-0.031,-0.091 -0.001,-0.05 -0.053,-0.237l-0.009 -0.178zm21.266 -5.522l4.735 0 0 4.442 -4.735 0 0 -4.442zm-5.857 0l4.777 0 0 4.442 -4.777 0 0 -4.442zm-5.814 0l4.776 0 0 4.442 -4.776 0 0 -4.442zm-5.816 0l4.735 0 0 4.442 -4.735 0 0 -4.442zm-4.444 0l3.365 0 0 4.442 -2.825 0c0,-0.326 -0.019,-0.122 -0.04,-0.271 -0.025,-0.17 0.036,-0.078 -0.034,-0.34 -0.011,-0.044 -0.005,-0.031 -0.009,-0.074 -0.02,-0.223 -0.033,0.074 -0.04,-0.437 -0.003,-0.217 -0.047,-0.028 -0.044,-0.268 0.004,-0.253 -0.031,-0.147 -0.04,-0.271 -0.008,-0.093 0.015,-0.065 -0.021,-0.166l-0.012 -0.029c-0.03,-0.105 0.01,-0.277 -0.013,-0.382 -0.025,-0.117 -0.016,0.036 -0.036,-0.109 -0.007,-0.047 0.002,-0.117 0,-0.166 -0.005,-0.129 -0.025,-0.027 -0.043,-0.269 -0.006,-0.074 -0.02,-0.066 -0.033,-0.112 -0.024,-0.086 0.005,-0.298 -0.013,-0.382 -0.021,-0.097 -0.004,-0.004 -0.022,-0.06 -0.021,-0.059 -0.016,-0.06 -0.015,-0.131 0.001,-0.244 -0.042,-0.057 -0.043,-0.269 0,-0.076 0.009,-0.086 -0.013,-0.152 -0.045,-0.135 -0.029,-0.101 -0.027,-0.285 0.003,-0.248 -0.039,-0.162 -0.042,-0.269zm28.161 4.442l-0.415 0 0 -4.442 2.16 0 -0.318 0.804c-0.001,0.005 -0.003,0.01 -0.005,0.015 -0.008,0.026 -0.01,0.039 -0.019,0.064l-0.047 0.099c-0.017,0.037 -0.002,-0.001 -0.018,0.044l-0.179 0.506c-0.028,0.078 -0.056,0.077 -0.094,0.196l-0.105 0.268c-0.003,0.007 -0.008,0.027 -0.01,0.033 -0.001,0.005 -0.003,0.011 -0.004,0.016l-0.036 0.109c-0.002,0.005 -0.003,0.011 -0.005,0.016 -0.002,0.005 -0.004,0.011 -0.006,0.016l-0.119 0.317c-0.001,0.004 -0.004,0.01 -0.006,0.014 -0.002,0.004 -0.005,0.009 -0.008,0.013 -0.003,0.005 -0.015,0.018 -0.019,0.022 -0.037,0.051 -0.032,0.092 -0.05,0.158 -0.001,0.006 -0.003,0.011 -0.005,0.016 -0.001,0.005 -0.004,0.01 -0.005,0.015l-0.085 0.164c-0.002,0.005 -0.004,0.011 -0.006,0.015 -0.002,0.005 -0.004,0.011 -0.005,0.016l-0.055 0.173c-0.002,0.005 -0.003,0.011 -0.005,0.016 -0.002,0.005 -0.003,0.011 -0.005,0.016 -0.002,0.004 -0.005,0.01 -0.006,0.014 -0.002,0.005 -0.005,0.01 -0.007,0.015l-0.077 0.193c-0.001,0.004 -0.004,0.01 -0.006,0.014l-0.409 1.024c-0.01,0.019 -0.001,-0.013 -0.021,0.041zm-6.23 -10.338c0.275,0 1.285,0.034 1.468,-0.027 0.08,-0.027 0.201,-0.015 0.297,-0.015l0.889 -0.004c0.103,-0.022 -0.045,-0.039 0.274,-0.037l1.807 0 0 4.941 -4.735 0 0 -4.858zm-5.857 0.166l0.582 -0.021c0.228,-0.081 1.446,0.044 1.717,-0.047 0.044,-0.015 0.007,-0.01 0.068,-0.016 0.193,-0.017 0.667,0.006 0.916,0.003 0.216,-0.003 0.026,-0.045 0.267,-0.045 0.409,0.002 0.818,0.002 1.227,0.002l0 4.816 -4.777 0 0 -4.692zm-5.814 0.125l1.366 -0.004c0.117,-0.026 -0.036,-0.016 0.109,-0.037 0.27,-0.039 1.509,0.049 1.737,-0.028 0.044,-0.014 0.006,-0.01 0.068,-0.015 0.197,-0.017 0.668,0.023 0.915,0.001 0.124,-0.01 0.03,-0.045 0.269,-0.042 0.104,0.001 0.208,0 0.312,0l0 4.692 -4.776 0 0 -4.567zm-5.774 0.166c0.027,-0.067 -0.015,-0.043 0.249,-0.042l2.032 -0.004c0.097,-0.021 0.003,-0.004 0.06,-0.023 0.118,-0.04 1.192,-0.017 1.48,-0.014 0.311,0.002 0.129,-0.02 0.271,-0.041 0.132,-0.019 0.451,-0.001 0.601,-0.001l0 4.526 -4.735 0 0 -4.152c-0.001,-0.264 -0.024,-0.223 0.042,-0.249zm-5.109 0.124c0.128,-0.003 0.054,-0.013 0.098,-0.027 0.136,-0.044 1.991,0.014 2.141,-0.018 0.121,-0.026 -0.03,-0.008 0.091,-0.034l1.658 -0.004 0 4.36 -3.489 0c0,-0.297 -0.039,-0.006 -0.04,-0.375 0,-0.013 -0.001,-0.048 -0.003,-0.06 -0.015,-0.106 -0.017,-0.022 -0.036,-0.109 -0.016,-0.075 0.005,-0.277 -0.005,-0.348 -0.015,-0.1 -0.017,-0.015 -0.036,-0.11 -0.009,-0.043 -0.001,-0.072 -0.01,-0.115 -0.017,-0.087 -0.02,-0.005 -0.035,-0.109 -0.022,-0.151 0.034,-0.139 -0.028,-0.325 -0.015,-0.043 -0.01,-0.006 -0.016,-0.068l-0.003 -0.287c-0.025,-0.118 -0.014,0.036 -0.035,-0.11 -0.007,-0.049 0.002,-0.062 -0.012,-0.114 -0.012,-0.045 -0.026,-0.034 -0.033,-0.111 -0.007,-0.082 0.013,-0.212 -0.003,-0.288 -0.019,-0.09 -0.042,-0.006 -0.038,-0.232l-0.032 -0.259c-0.014,-0.051 -0.004,-0.064 -0.011,-0.113 -0.021,-0.146 -0.01,0.008 -0.036,-0.11 -0.038,-0.18 0.048,-0.104 -0.037,-0.399 -0.02,-0.073 -0.002,-0.204 -0.006,-0.285 -0.004,-0.119 0.015,-0.077 -0.044,-0.101l0 -0.249zm30.944 4.277l-2.575 0 0 -4.983c0.497,0 0.322,-0.044 0.539,-0.042 0.246,0.003 0.993,0.036 1.178,-0.026l0.088 -0.016c0.489,-0.021 1.106,0.002 1.601,0.002 0.132,0 0.299,0.027 0.427,-0.009l0.112 -0.034c0.162,-0.014 0.41,0.001 0.582,0.001l-0.181 0.525c-0.052,0.112 -0.038,0.125 -0.072,0.219 -0.001,0.005 -0.003,0.011 -0.005,0.015 -0.028,0.066 -0.056,0.077 -0.085,0.165 -0.002,0.005 -0.004,0.01 -0.005,0.015 -0.033,0.098 -0.017,0.13 -0.077,0.214l-0.129 0.327c-0.057,0.121 -0.026,0.168 -0.101,0.273 -0.004,0.005 -0.017,0.017 -0.02,0.022 -0.028,0.04 -0.026,0.086 -0.041,0.146 -0.001,0.005 -0.003,0.01 -0.005,0.016l-0.095 0.195c-0.015,0.031 -0.019,0.059 -0.03,0.095 -0.024,0.073 0.013,-0.043 -0.011,0.03l-0.071 0.178c-0.003,0.006 -0.01,0.023 -0.013,0.029 -0.012,0.032 -0.019,0.063 -0.03,0.095l-0.173 0.47c-0.001,0 -0.046,0.057 -0.046,0.058 -0.025,0.054 -0.007,0.045 -0.02,0.105 -0.001,0.005 -0.002,0.011 -0.004,0.017l-0.136 0.32c-0.002,0.005 -0.004,0.01 -0.006,0.015 -0.001,0.005 -0.003,0.011 -0.005,0.016l-0.337 0.846c-0.005,0.025 -0.002,0.035 -0.007,0.056 -0.015,0.083 -0.05,0.074 -0.102,0.23l-0.077 0.193c-0.033,0.07 -0.066,0.13 -0.068,0.222z"/>
   <path class="fil0 str0" d="M12.431 49.892c-0.025,-0.001 -0.017,0.002 -0.037,-0.004 -0.043,-0.013 -0.019,-0.001 -0.046,-0.017 -0.005,-0.003 -0.025,-0.023 -0.032,-0.03 -0.024,-0.024 0.002,-0.003 -0.03,-0.032l-0.254 -0.141c-0.123,-0.042 -0.362,-0.039 -0.515,-0.026 -0.099,0.008 -0.124,0.023 -0.192,0.057l-0.085 0.061c-0.004,0.002 -0.01,0.005 -0.013,0.007 -0.004,0.003 -0.01,0.005 -0.014,0.008 -0.004,0.002 -0.009,0.005 -0.013,0.007l-0.363 0.427c-0.002,0.006 -0.01,0.022 -0.012,0.029l-0.035 0.152c-0.004,0.013 -0.004,-0.01 -0.016,0.046 -0.029,0.138 0.004,0.254 0.031,0.375 0.046,0.207 0.004,0.046 0.09,0.201 0.079,0.144 0.06,0.121 0.176,0.24 0.097,0.099 0.189,0.172 0.369,0.212l0.148 0.038c0.042,0.012 0.071,0.01 0.115,0.011 0.026,0 0.083,0.001 0.106,-0.001l0.328 -0.087c0.074,-0.027 0.167,-0.096 0.222,-0.152 0.012,-0.012 0.027,-0.027 0.031,-0.031 0.037,-0.037 0.016,-0.007 0.051,-0.053l0.147 -0.247c0.008,-0.024 0.007,-0.028 0.014,-0.049l0.037 -0.087c0.059,-0.113 0.071,-0.359 0.015,-0.473l-0.083 -0.207c-0.027,-0.061 -0.076,-0.094 -0.11,-0.139 -0.033,-0.044 -0.027,0.015 -0.03,-0.095z"/>
   <path class="fil0 str0" d="M38.349 51.221l0.083 0 0 0.083 0.113 0.032c0.028,0.015 0.019,0.01 0.039,0.024l0.164 0.084c0.005,0.002 0.01,0.004 0.015,0.006l0.182 0.047c0.095,0.031 0.198,0.018 0.291,-0.012l0.39 -0.151c0.044,-0.031 -0.032,-0.028 0.093,-0.03 0.002,-0.056 -0.005,-0.028 0.014,-0.07l0.177 -0.218c0.074,-0.105 0.049,-0.108 0.086,-0.225 0.034,-0.106 0.029,-0.385 -0.005,-0.485 -0.038,-0.112 -0.051,-0.102 -0.09,-0.18l-0.212 -0.287c-0.004,-0.004 -0.016,-0.017 -0.02,-0.021 -0.046,-0.044 -0.107,-0.046 -0.213,-0.119 -0.004,-0.003 -0.009,-0.006 -0.012,-0.008l-0.041 -0.023c-0.117,-0.055 -0.505,-0.038 -0.613,0l-0.261 0.113c-0.004,0.003 -0.009,0.006 -0.013,0.009l-0.126 0.122c-0.002,0.002 -0.03,0.03 -0.032,0.031l-0.196 0.406c-0.002,0.005 -0.004,0.009 -0.006,0.015 -0.047,0.153 -0.066,0.199 -0.032,0.29l0.053 0.157c0.002,0.006 0.002,0.011 0.003,0.018l0.085 0.226c0.023,0.042 0.009,0.018 0.024,0.039 0.069,0.093 0.057,-0.009 0.06,0.127z"/>
  </g>
 </g>
</svg>
